<svg id="Capa_1" enable-background="new 0 0 512 512" height="512" viewBox="0 0 512 512" width="512" xmlns="http://www.w3.org/2000/svg"><path d="m135.389 489.106h-73.991c-11.495 0-20.813-9.318-20.813-20.813v-165.717l-33.597-31.013c-2.824-2.606-5.015-5.87-6.109-9.554-2.326-7.831.087-16.013 5.818-21.303l33.889-31.283v-165.716c0-11.495 9.318-20.813 20.813-20.813h73.991c5.69 0 10.302 4.612 10.302 10.302v21.022c0 5.69-4.612 10.302-10.302 10.302h-53.179v154.016c0 5.809-2.428 11.354-6.696 15.294l-24.017 22.17 24.017 22.17c4.268 3.94 6.696 9.485 6.696 15.294v154.016h53.178c5.69 0 10.302 4.612 10.302 10.302v21.022c0 5.689-4.612 10.302-10.302 10.302z" fill="#8f818f"/><g fill="#786e79"><path d="m60.358 218.537c0 5.809-2.428 11.354-6.696 15.294l-14.077 12.994c-5.357 4.945-5.357 13.407 0 18.352l14.076 12.994c4.268 3.94 6.696 9.485 6.696 15.294v133.203c0 11.495 9.318 20.813 20.813 20.813h1.041v-154.017c0-5.809-2.428-11.354-6.696-15.294l-24.017-22.17 24.017-22.17c4.268-3.94 6.696-9.485 6.696-15.294v-154.016h-1.041c-11.495 0-20.813 9.318-20.813 20.813v133.204z"/><path d="m123.837 22.894v41.626h11.552c5.69 0 10.302-4.612 10.302-10.302v-21.022c0-5.69-4.612-10.302-10.302-10.302z"/><path d="m123.837 489.106h11.552c5.69 0 10.302-4.612 10.302-10.302v-21.022c0-5.69-4.612-10.302-10.302-10.302h-11.552z"/></g><path d="m376.611 489.106h73.991c11.495 0 20.813-9.318 20.813-20.813v-165.717l33.597-31.013c2.824-2.606 5.015-5.87 6.109-9.554 2.326-7.831-.087-16.013-5.818-21.303l-33.889-31.283v-165.716c0-11.495-9.318-20.813-20.813-20.813h-73.991c-5.69 0-10.302 4.612-10.302 10.302v21.022c0 5.69 4.612 10.302 10.302 10.302h53.178v154.016c0 5.809 2.428 11.354 6.696 15.294l24.018 22.17-24.017 22.17c-4.268 3.94-6.696 9.485-6.696 15.294v154.016h-53.178c-5.69 0-10.302 4.612-10.302 10.302v21.022c0 5.689 4.612 10.302 10.302 10.302z" fill="#8f818f"/><path d="m505.012 240.437-33.597-31.013v-165.717c0-11.495-9.318-20.813-20.813-20.813h-21.854c11.495 0 20.813 9.318 20.813 20.813v161.16c0 2.904 1.214 5.677 3.348 7.647l30.25 27.923c2.824 2.606 5.015 5.87 6.109 9.554 2.326 7.831-.087 16.013-5.818 21.303l-30.541 28.192c-2.134 1.97-3.348 4.742-3.348 7.647v161.16c0 11.495-9.318 20.813-20.813 20.813h21.854c11.495 0 20.813-9.318 20.813-20.813v-165.717l33.889-31.283c5.731-5.29 8.144-13.472 5.818-21.303-1.095-3.683-3.286-6.947-6.11-9.553z" fill="#786e79"/><path d="m360.065 406.894h-207.653c-5.839 0-11.545-2.222-15.558-6.463-6.026-6.368-7.358-15.604-3.726-23.266l62.375-121.165-62.374-121.166c-3.632-7.661-2.3-16.898 3.726-23.266 4.013-4.241 9.719-6.463 15.558-6.463h207.653c11.495 0 20.813 9.318 20.813 20.813v58.382c0 5.69-4.612 10.302-10.302 10.302h-21.022c-5.69 0-10.302-4.612-10.302-10.302v-27.266c0-5.69-4.612-10.302-10.302-10.302h-144.116l52.508 100.353c2.675 5.642 2.675 12.189 0 17.831l-52.508 100.353h144.115c5.69 0 10.302-4.612 10.302-10.302v-28.307c0-5.69 4.612-10.302 10.302-10.302h21.022c5.69 0 10.302 4.612 10.302 10.302v59.422c0 11.494-9.318 20.812-20.813 20.812z" fill="#fba65c"/><path d="m237.343 264.916c2.675-5.642 2.675-12.189 0-17.831l-52.508-100.353h-1.542c-7.82 0-12.846 8.302-9.221 15.231l44.538 85.122c2.675 5.642 2.675 12.189 0 17.831l-44.538 85.122c-3.625 6.929 1.401 15.231 9.221 15.231h1.542z" fill="#fb9538"/><path d="m362.146 386.081c0 11.495-9.318 20.813-20.813 20.813h18.732c11.495 0 20.813-9.318 20.813-20.813v-59.421c0-5.69-4.612-10.302-10.302-10.302h-8.43z" fill="#fb9538"/><path d="m360.065 105.106h-18.732c11.495 0 20.813 9.318 20.813 20.813v68.683h8.43c5.69 0 10.302-4.612 10.302-10.302v-58.381c0-11.495-9.318-20.813-20.813-20.813z" fill="#fb9538"/></svg>